<svg xmlns="http://www.w3.org/2000/svg"><metadata>Generated by IcoMoon</metadata><defs><font id="icomoon" horiz-adv-x="1024"><font-face ascent="960" descent="-64" units-per-em="1024"/><glyph horiz-adv-x="512"/><glyph d="M210.745 717.255c12.003 12.002 28.281 18.745 45.255 18.745h384c16.973 0 33.254-6.743 45.254-18.745s18.746-28.281 18.746-45.255v-608c0-11.987-6.701-22.97-17.357-28.454s-23.488-4.55-33.242 2.413l-205.428 146.714-205.372-146.707c-9.754-6.97-22.584-7.904-33.243-2.419s-17.358 16.467-17.358 28.454v608c0 16.974 6.743 33.252 18.745 45.255zM640 672h-384v-545.811l173.369 123.846c11.126 7.949 26.072 7.955 37.199 0.006l173.432-123.866v545.824zM338.745 845.255c12.003 12.002 28.281 18.745 45.255 18.745h384c16.973 0 33.254-6.743 45.254-18.745s18.746-28.281 18.746-45.255v-608c0-11.987-6.701-22.97-17.357-28.454s-23.488-4.55-33.242 2.413l-128 91.418c-14.381 10.272-17.714 30.259-7.443 44.64 10.272 14.381 30.259 17.715 44.64 7.443l77.402-55.283v545.824h-384v-96c0-17.673-14.327-32-32-32s-32 14.327-32 32v96c0 16.974 6.743 33.252 18.745 45.255z" glyph-name="bookmarks" unicode=""/><glyph d="M512 640c-53.021 0-96-42.979-96-96s42.979-96 96-96c53.021 0 96 42.979 96 96s-42.979 96-96 96zM352 544c0 88.365 71.635 160 160 160s160-71.635 160-160c0-88.365-71.635-160-160-160s-160 71.635-160 160zM512 832c-76.381 0-149.635-30.343-203.647-84.353s-84.353-127.266-84.353-203.647c0-132.477 73.979-253.107 152.147-343.002 38.694-44.499 77.469-80.374 106.576-105.117 11.514-9.786 21.475-17.798 29.277-23.882 7.802 6.083 17.763 14.096 29.277 23.882 29.107 24.742 67.882 60.618 106.576 105.117 78.17 89.894 152.147 210.525 152.147 343.002 0 76.381-30.342 149.636-84.352 203.647-54.013 54.011-127.267 84.353-203.648 84.353zM512 32c-18.352-26.214-18.358-26.208-18.371-26.202l-0.026 0.019-0.074 0.051-0.237 0.166-0.813 0.579c-0.694 0.496-1.68 1.203-2.941 2.125-2.525 1.843-6.15 4.531-10.72 8.022-9.139 6.986-22.077 17.21-37.542 30.355-30.893 26.259-72.118 64.384-113.424 111.885-81.832 94.106-167.853 229.475-167.853 384.998 0 93.357 37.086 182.889 103.099 248.901s155.545 103.099 248.901 103.099c93.357 0 182.89-37.086 248.902-103.099s103.098-155.545 103.098-248.901c0-155.523-86.022-290.893-167.853-384.998-41.306-47.501-82.531-85.626-113.424-111.885-15.466-13.146-28.403-23.37-37.542-30.355-4.57-3.491-8.195-6.179-10.72-8.022-1.261-0.922-2.246-1.629-2.941-2.125l-0.813-0.579-0.237-0.166-0.074-0.051-0.026-0.019c-0.013-0.006-0.019-0.013-18.371 26.202zM512 32l18.352-26.214c-11.021-7.715-25.683-7.715-36.704 0l18.352 26.214z" glyph-name="map" unicode=""/><glyph d="M673.609 609.661c14.281-14.282 14.281-37.439 0-51.72l-271.528-271.528c-14.281-14.281-37.439-14.281-51.72 0s-14.282 37.438 0 51.719l271.529 271.529c14.281 14.282 37.438 14.282 51.719 0zM334.19 541.747c14.282-14.281 14.282-37.438 0-51.719l-113.133-113.134c-0.001 0 0.001 0.004 0 0-29.138-29.147-45.509-68.681-45.505-109.897 0.003-41.22 16.379-80.746 45.524-109.893 29.145-29.144 68.674-45.52 109.891-45.524s80.75 16.366 109.898 45.506l113.134 113.134c14.281 14.281 37.438 14.281 51.719 0s14.281-37.438 0-51.719l-113.137-113.137c-42.865-42.854-101.007-66.929-161.62-66.926-60.614 0.007-118.744 24.090-161.605 66.948-42.861 42.862-66.942 100.992-66.947 161.605s24.066 118.747 66.919 161.616l113.142 113.141c14.282 14.281 37.438 14.281 51.72 0zM531.394 790.673c42.869 42.853 101.003 66.925 161.616 66.919 60.617-0.005 118.744-24.086 161.605-66.947s66.944-100.991 66.948-161.605c0.004-60.615-24.068-118.749-66.918-161.618l-113.141-113.141c-14.285-14.281-37.438-14.281-51.723 0-14.281 14.285-14.281 37.438 0 51.719l113.134 113.134c0.004 0.004 0 0 0 0 29.136 29.151 45.509 68.685 45.506 109.899-0.004 41.218-16.38 80.746-45.524 109.891s-68.674 45.52-109.89 45.524c-41.216 0.004-80.746-16.363-109.897-45.501 0-0.001 0.004 0.001 0 0l-113.137-113.137c-14.281-14.282-37.438-14.282-51.719 0s-14.281 37.438 0 51.72l113.141 113.141z" glyph-name="link-out" unicode=""/><glyph d="M512 795.429c-191.88 0-347.429-155.549-347.429-347.429s155.549-347.429 347.429-347.429c191.879 0 347.429 155.549 347.429 347.429s-155.549 347.429-347.429 347.429zM91.429 448c0 232.275 188.296 420.571 420.571 420.571 232.276 0 420.571-188.296 420.571-420.571s-188.295-420.571-420.571-420.571c-232.275 0-420.571 188.295-420.571 420.571zM514.256 605.738c24.865 24.862 58.584 38.829 93.744 38.829h64c20.198 0 36.571-16.373 36.571-36.571s-16.373-36.571-36.571-36.571h-64c-15.762 0-30.877-6.261-42.021-17.408-11.147-11.143-17.408-26.258-17.408-42.021v-448c0-20.198-16.373-36.571-36.571-36.571s-36.571 16.373-36.571 36.571v448c0 35.16 13.967 68.879 38.828 93.742zM347.429 383.996c0 20.198 16.374 36.571 36.571 36.571h256c20.198 0 36.571-16.373 36.571-36.571s-16.373-36.571-36.571-36.571h-256c-20.198 0-36.571 16.373-36.571 36.571z" glyph-name="facebook" unicode=""/><glyph d="M272.842 754.526c-0.894 0-1.75-0.355-2.382-0.987s-0.987-1.488-0.987-2.382v-618.324l201.268 125.806c8.738 5.46 19.826 5.46 28.564 0l201.326-125.812v618.329c0 0.894-0.356 1.75-0.986 2.382s-1.487 0.987-2.382 0.987h-424.421zM232.351 791.649c10.739 10.739 25.304 16.772 40.491 16.772h424.421c15.188 0 29.75-6.033 40.491-16.772s16.772-25.304 16.772-40.491v-666.947c0-9.798-5.314-18.82-13.883-23.568s-19.036-4.473-27.346 0.717l-228.271 142.654-228.217-142.654c-8.307-5.19-18.777-5.465-27.346-0.717s-13.885 13.77-13.885 23.568v666.947c0 15.187 6.033 29.752 16.772 40.491z" glyph-name="bookmark-outline" horiz-adv-x="970" unicode=""/><glyph d="M192 771.556c-1.964 0-3.556-1.592-3.556-3.556v-640c0-1.963 1.592-3.556 3.556-3.556h640c1.963 0 3.556 1.593 3.556 3.556v640c0 1.964-1.593 3.556-3.556 3.556h-640zM131.556 768c0 33.382 27.062 60.444 60.444 60.444h640c33.382 0 60.444-27.062 60.444-60.444v-640c0-33.382-27.062-60.444-60.444-60.444h-640c-33.382 0-60.444 27.062-60.444 60.444v640zM704 892.444c15.707 0 28.444-12.735 28.444-28.444v-128c0-15.709-12.737-28.444-28.444-28.444s-28.444 12.735-28.444 28.444v128c0 15.709 12.737 28.444 28.444 28.444zM320 892.444c15.709 0 28.444-12.735 28.444-28.444v-128c0-15.709-12.735-28.444-28.444-28.444s-28.444 12.735-28.444 28.444v128c0 15.709 12.735 28.444 28.444 28.444zM131.556 608c0 15.709 12.735 28.444 28.444 28.444h704c15.707 0 28.444-12.735 28.444-28.444s-12.737-28.444-28.444-28.444h-704c-15.709 0-28.444 12.735-28.444 28.444zM597.333 509.043l-233.244-199.926v-62.777h80.827l229.451 196.674-77.033 66.029zM571.21 546.594c7.441 6.379 16.879 9.495 26.123 9.495s18.682-3.116 26.123-9.495l89.372-76.605c7.549-6.472 12.635-16.071 12.635-26.974s-5.086-20.503-12.635-26.975l-244.687-209.732c-4.124-3.533-9.377-5.478-14.809-5.478h-96c-9.243 0-18.681 3.118-26.123 9.495-7.551 6.474-12.633 16.071-12.633 26.977v76.607c0 5.319 1.229 10.479 3.484 15.15 2.248 4.648 5.424 8.63 9.148 11.822l239.999 205.716zM516.057 498.962c8.179 9.542 22.544 10.647 32.086 2.468l112.001-96c9.54-8.179 10.644-22.545 2.469-32.085-8.181-9.54-22.545-10.65-32.091-2.469l-111.997 96c-9.542 8.179-10.647 22.544-2.468 32.086z" glyph-name="calendar-blank" unicode=""/><glyph d="M192 771.556c-1.964 0-3.556-1.592-3.556-3.556v-640c0-1.963 1.592-3.556 3.556-3.556h640c1.963 0 3.556 1.593 3.556 3.556v640c0 1.964-1.593 3.556-3.556 3.556h-640zM131.556 768c0 33.382 27.062 60.444 60.444 60.444h640c33.382 0 60.444-27.062 60.444-60.444v-640c0-33.382-27.062-60.444-60.444-60.444h-640c-33.382 0-60.444 27.062-60.444 60.444v640zM704 892.444c15.707 0 28.444-12.735 28.444-28.444v-128c0-15.709-12.737-28.444-28.444-28.444s-28.444 12.735-28.444 28.444v128c0 15.709 12.737 28.444 28.444 28.444zM320 892.444c15.709 0 28.444-12.735 28.444-28.444v-128c0-15.709-12.735-28.444-28.444-28.444s-28.444 12.735-28.444 28.444v128c0 15.709 12.735 28.444 28.444 28.444zM131.556 608c0 15.709 12.735 28.444 28.444 28.444h704c15.707 0 28.444-12.735 28.444-28.444s-12.737-28.444-28.444-28.444h-704c-15.709 0-28.444 12.735-28.444 28.444zM339.556 448.013c0 15.709 12.735 28.444 28.444 28.444h112c10.934 0 20.9-6.267 25.637-16.123s3.405-21.552-3.426-30.091l-37.921-47.404c11.377-6.969 21.129-16.327 28.567-27.455 8.447-12.641 13.647-27.164 15.14-42.291s-0.766-30.384-6.579-44.43c-5.812-14.046-14.999-26.442-26.745-36.090s-25.69-16.247-40.597-19.223c-14.907-2.97-30.317-2.219-44.864 2.185s-27.786 12.328-38.541 23.068c-11.115 11.105-11.126 29.116-0.024 40.226 11.101 11.116 29.112 11.127 40.227 0.028 4.136-4.136 9.227-7.179 14.823-8.875s11.522-1.985 17.256-0.842c5.734 1.143 11.097 3.686 15.614 7.396s8.051 8.476 10.287 13.881c2.236 5.399 3.104 11.27 2.53 17.089s-2.575 11.406-5.823 16.265c-3.249 4.858-7.646 8.846-12.802 11.6s-10.912 4.198-16.758 4.198c-10.934 0-20.9 6.269-25.637 16.122s-3.405 21.55 3.426 30.089l27.029 33.788h-52.818c-15.709 0-28.444 12.735-28.444 28.444zM652.72 473.453c9.637-4.818 15.724-14.667 15.724-25.441v-207.998c0-15.713-12.737-28.444-28.444-28.444s-28.444 12.732-28.444 28.444v151.109l-18.489-13.864c-12.567-9.426-30.397-6.884-39.822 5.689-9.426 12.566-6.878 30.395 5.689 39.82l64 48c8.619 6.464 20.15 7.504 29.787 2.686z" glyph-name="calendar" unicode=""/><glyph d="M611.556 544c0 15.709 12.737 28.444 28.444 28.444h320c15.707 0 28.444-12.735 28.444-28.444s-12.737-28.444-28.444-28.444h-320c-15.707 0-28.444 12.735-28.444 28.444zM611.556 416c0 15.709 12.737 28.444 28.444 28.444h320c15.707 0 28.444-12.735 28.444-28.444s-12.737-28.444-28.444-28.444h-320c-15.707 0-28.444 12.735-28.444 28.444zM611.556 288c0 15.707 12.737 28.444 28.444 28.444h320c15.707 0 28.444-12.737 28.444-28.444s-12.737-28.444-28.444-28.444h-320c-15.707 0-28.444 12.737-28.444 28.444zM259.556 160c0 15.707 12.735 28.444 28.444 28.444h672c15.707 0 28.444-12.737 28.444-28.444s-12.737-28.444-28.444-28.444h-672c-15.709 0-28.444 12.737-28.444 28.444zM319.722 643.556c-30.652-0.003-60.686-8.619-86.679-24.864s-46.898-39.468-60.332-67.020c-13.434-27.551-18.856-58.322-15.65-88.806s14.915-59.453 33.788-83.604c18.873-24.155 44.154-42.519 72.958-52.998s59.974-12.658 89.956-6.281c29.982 6.372 57.569 21.043 79.616 42.342 22.047 21.294 37.668 48.353 45.080 78.095 3.8 15.243 19.236 24.52 34.479 20.721s24.52-19.236 20.721-34.479c-9.991-40.085-31.044-76.557-60.759-105.257s-66.896-48.475-107.305-57.071c-40.409-8.59-82.419-5.655-121.241 8.471s-72.894 38.872-98.331 71.424c-25.437 32.552-41.217 71.599-45.539 112.684s2.986 82.559 21.093 119.691c18.106 37.133 46.281 68.432 81.314 90.328s75.512 33.508 116.824 33.512c15.71 0.002 28.446-12.732 28.448-28.442s-12.732-28.446-28.442-28.447zM319.749 530.538c15.709-0.016 28.431-12.764 28.415-28.474l-0.219-213.655c-0.016-15.707-12.764-28.433-28.473-28.416s-28.431 12.766-28.415 28.473l0.219 213.656c0.016 15.709 12.764 28.431 28.474 28.415zM121.363 754.517c19.622 16.731 44.564 25.923 70.351 25.927 5.332 0.001 10.558-1.497 15.080-4.324l248.247-155.154c10.966 1.574 21.207 6.652 29.133 14.578 9.669 9.669 15.101 22.782 15.101 36.456s-5.432 26.787-15.101 36.456c-9.668 9.668-22.782 15.1-36.455 15.1-15.709 0-28.444 12.735-28.444 28.444s12.735 28.444 28.444 28.444c28.761 0 56.344-11.426 76.682-31.763s31.763-47.92 31.763-76.682c0-28.761-11.426-56.344-31.763-76.682s-47.92-31.763-76.682-31.763c-5.331 0-10.555 1.498-15.076 4.324l-248.244 155.152c-9.6-1.379-18.67-5.447-26.126-11.804-9.33-7.955-15.52-18.974-17.46-31.081s0.497-24.508 6.873-34.98c6.377-10.472 16.276-18.33 27.923-22.163 14.922-4.912 23.037-20.99 18.125-35.912s-20.99-23.037-35.912-18.125c-24.494 8.062-45.314 24.589-58.725 46.614s-18.537 48.108-14.456 73.569c4.081 25.462 17.1 48.637 36.722 65.368z" glyph-name="article" unicode=""/><glyph d="M217.844 153.843c-36.816 36.819-12.397 114.112-31.137 159.398-19.426 46.952-90.707 84.739-90.707 134.76s71.282 87.807 90.707 134.756c18.739 45.29-5.679 122.583 31.137 159.399s114.109 12.397 159.4 31.137c46.95 19.426 84.737 90.707 134.758 90.707s87.807-71.282 134.757-90.707c45.286-18.739 122.579 5.679 159.398-31.137 36.813-36.816 12.397-114.109 31.136-159.4 19.424-46.95 90.707-84.737 90.707-134.758s-71.283-87.807-90.707-134.757c-18.739-45.286 5.677-122.579-31.136-159.398-36.819-36.813-114.112-12.397-159.398-31.136-46.952-19.424-84.739-90.707-134.76-90.707s-87.807 71.283-134.756 90.707c-45.29 18.739-122.583-5.677-159.399 31.136z" unicode=""/><glyph d="M431.96 771.418c-11.894-10.248-26.095-20.914-42.482-27.694-16.165-6.689-33.624-8.959-48.997-9.957-10.038-0.652-21.247-0.826-31.468-0.984-4.884-0.076-9.542-0.148-13.74-0.267-30.796-0.874-46.476-4.66-54.803-12.988s-12.113-24.006-12.988-54.803c-0.119-4.197-0.191-8.855-0.267-13.739-0.158-10.221-0.332-21.429-0.983-31.468-0.998-15.373-3.269-32.831-9.957-48.997-6.781-16.387-17.446-30.587-27.695-42.481-7.059-8.191-15.192-16.675-22.56-24.36-3.049-3.18-5.967-6.223-8.623-9.053-9.894-10.539-17.533-19.471-22.732-27.888-5.066-8.202-6.666-14.107-6.666-18.739s1.601-10.538 6.666-18.74c5.199-8.417 12.838-17.35 22.733-27.888 2.656-2.829 5.574-5.873 8.623-9.053 7.368-7.685 15.501-16.169 22.56-24.361 10.248-11.894 20.914-26.095 27.694-42.482 6.689-16.166 8.959-33.625 9.957-48.998 0.652-10.035 0.826-21.248 0.984-31.469 0.076-4.883 0.148-9.542 0.267-13.734 0.874-30.797 4.66-46.477 12.988-54.803s24.006-12.115 54.803-12.992c4.197-0.115 8.855-0.192 13.738-0.262 10.221-0.16 21.43-0.333 31.469-0.986 15.373-0.998 32.831-3.27 48.997-9.958 16.387-6.778 30.587-17.446 42.481-27.693 8.192-7.059 16.675-15.194 24.36-22.56 3.18-3.053 6.223-5.965 9.052-8.621 10.539-9.894 19.471-17.536 27.888-22.733 8.202-5.069 14.107-6.669 18.739-6.669s10.538 1.6 18.74 6.669c8.417 5.197 17.35 12.838 27.888 22.733 2.829 2.656 5.873 5.568 9.052 8.621 7.686 7.366 16.17 15.501 24.362 22.56 11.894 10.246 26.095 20.915 42.482 27.693 16.166 6.688 33.625 8.96 48.998 9.958 10.035 0.653 21.248 0.826 31.469 0.986 4.883 0.070 9.542 0.147 13.741 0.262 30.79 0.877 46.47 4.666 54.797 12.992s12.115 24.006 12.992 54.797c0.115 4.198 0.192 8.858 0.262 13.741 0.16 10.221 0.333 21.427 0.986 31.469 0.998 15.373 3.27 32.832 9.958 48.998 6.778 16.387 17.446 30.587 27.693 42.481 7.059 8.192 15.194 16.675 22.56 24.36 3.053 3.18 5.965 6.223 8.621 9.052 9.894 10.539 17.536 19.471 22.733 27.888 5.069 8.202 6.669 14.107 6.669 18.739s-1.6 10.538-6.669 18.74c-5.197 8.417-12.838 17.349-22.733 27.888-2.656 2.829-5.568 5.873-8.621 9.052-7.366 7.686-15.501 16.17-22.56 24.362-10.246 11.894-20.915 26.095-27.693 42.482-6.688 16.165-8.96 33.624-9.958 48.997-0.653 10.039-0.826 21.247-0.986 31.468-0.070 4.884-0.147 9.542-0.262 13.739-0.877 30.796-4.666 46.476-12.992 54.803s-24.006 12.113-54.797 12.988c-4.198 0.119-8.858 0.191-13.741 0.267-10.221 0.158-21.434 0.332-31.469 0.983-15.373 0.998-32.832 3.269-48.998 9.957v0c-16.387 6.781-30.587 17.446-42.481 27.695-8.191 7.059-16.675 15.192-24.36 22.56-3.18 3.049-6.223 5.967-9.053 8.623-10.539 9.894-19.471 17.533-27.888 22.732-8.202 5.066-14.107 6.666-18.739 6.666s-10.538-1.601-18.74-6.666c-8.417-5.199-17.349-12.838-27.888-22.733-2.83-2.656-5.873-5.574-9.053-8.623-7.685-7.368-16.168-15.501-24.36-22.56zM459.629 879.784c14.419 8.906 31.995 16.216 52.372 16.216s37.954-7.31 52.372-16.216c14.204-8.774 27.031-20.169 38.060-30.524 3.936-3.695 7.578-7.189 11.061-10.531 7.048-6.763 13.448-12.903 20.322-18.826 9.959-8.58 18.087-14.109 25.172-17.042 6.483-2.681 15.667-4.385 28.678-5.229 8.576-0.557 16.826-0.677 25.933-0.81 5.28-0.077 10.848-0.158 16.941-0.332 28.378-0.805 69.754-3.217 98.24-31.706 28.493-28.489 30.906-69.865 31.712-98.242 0.173-6.091 0.25-11.66 0.326-16.94 0.134-9.112 0.256-17.361 0.813-25.937 0.845-13.008 2.547-22.195 5.229-28.675v0c2.931-7.087 8.461-15.217 17.043-25.175 5.92-6.874 12.064-13.274 18.822-20.323 3.347-3.483 6.842-7.125 10.534-11.061 10.355-11.030 21.747-23.857 30.522-38.061 8.909-14.419 16.218-31.995 16.218-52.372s-7.309-37.954-16.218-52.372c-8.774-14.204-20.166-27.031-30.522-38.060-3.693-3.935-7.187-7.577-10.528-11.060-6.765-7.049-12.909-13.449-18.829-20.323-8.582-9.959-14.112-18.087-17.043-25.172-2.682-6.483-4.384-15.667-5.229-28.678-0.557-8.576-0.678-16.819-0.813-25.933-0.077-5.28-0.154-10.848-0.326-16.941-0.806-28.378-3.219-69.754-31.712-98.24-28.486-28.493-69.862-30.906-98.24-31.712-6.093-0.173-11.661-0.25-16.941-0.326-9.107-0.134-17.357-0.256-25.933-0.813-13.011-0.845-22.195-2.547-28.678-5.229-7.085-2.931-15.213-8.461-25.173-17.043-6.874-5.92-13.274-12.064-20.323-18.822-3.483-3.347-7.125-6.842-11.061-10.534-11.030-10.355-23.857-21.747-38.061-30.522-14.419-8.909-31.995-16.218-52.372-16.218s-37.954 7.309-52.372 16.218c-14.204 8.774-27.031 20.166-38.060 30.522-3.936 3.693-7.578 7.187-11.060 10.534-7.049 6.758-13.448 12.902-20.323 18.822-9.958 8.582-18.087 14.112-25.174 17.043-6.479 2.682-15.667 4.384-28.674 5.229-8.577 0.557-16.824 0.678-25.936 0.813-5.28 0.077-10.849 0.154-16.941 0.326-28.377 0.806-69.752 3.219-98.242 31.712-28.489 28.486-30.901 69.862-31.707 98.24-0.173 6.093-0.254 11.661-0.331 16.941-0.133 9.107-0.254 17.357-0.811 25.933-0.844 13.011-2.548 22.195-5.229 28.678-2.932 7.085-8.461 15.213-17.041 25.173-5.923 6.874-12.063 13.274-18.826 20.323-3.342 3.484-6.836 7.125-10.531 11.061-10.355 11.030-21.75 23.857-30.523 38.061-8.906 14.419-16.216 31.995-16.216 52.372s7.31 37.954 16.216 52.372c8.774 14.204 20.169 27.031 30.524 38.060 3.695 3.936 7.189 7.578 10.531 11.061 6.763 7.048 12.903 13.448 18.826 20.322 8.58 9.958 14.109 18.087 17.042 25.174 2.681 6.479 4.385 15.667 5.229 28.674 0.557 8.577 0.677 16.825 0.81 25.937 0.077 5.279 0.158 10.849 0.332 16.94 0.805 28.377 3.217 69.752 31.706 98.242s69.865 30.901 98.242 31.707c6.092 0.173 11.661 0.254 16.94 0.331 9.112 0.133 17.36 0.254 25.937 0.811 13.008 0.844 22.195 2.548 28.675 5.229v0c7.087 2.932 15.217 8.461 25.175 17.041 6.874 5.923 13.274 12.063 20.323 18.826 3.484 3.342 7.125 6.836 11.061 10.531 11.030 10.355 23.857 21.75 38.061 30.523z" unicode=""/><glyph d="M711.149 566.095c12.198-12.784 11.731-33.040-1.056-45.243l-234.666-224.001c-12.365-11.802-31.825-11.802-44.191 0l-117.332 112.001c-12.784 12.203-13.255 32.459-1.052 45.243s32.458 13.255 45.242 1.052l95.237-90.909 212.575 202.909c12.781 12.203 33.037 11.732 45.242-1.052z" unicode=""/><glyph d="M512 832c17.673 0 32-14.327 32-32v-704c0-17.67-14.327-32-32-32s-32 14.33-32 32v704c0 17.673 14.327 32 32 32zM201.373 406.627c12.497 12.497 32.758 12.497 45.254 0l265.373-265.373 265.37 265.373c12.499 12.497 32.762 12.497 45.261 0 12.493-12.497 12.493-32.758 0-45.254l-288.003-288.003c-12.497-12.493-32.758-12.493-45.254 0l-288 288.003c-12.497 12.497-12.497 32.758 0 45.254z" glyph-name="arrow-down" unicode=""/><glyph d="M464 783.238c-158.637 0-287.238-128.601-287.238-287.238s128.601-287.236 287.238-287.236c158.636 0 287.236 128.6 287.236 287.236s-128.6 287.238-287.236 287.238zM79.238 496c0 212.498 172.264 384.762 384.762 384.762s384.76-172.264 384.76-384.762c0-212.499-172.261-384.76-384.76-384.76s-384.762 172.261-384.762 384.76zM667.092 292.879c19.046 19.042 49.918 19.042 68.964 0l194.399-194.404c19.046-19.042 19.046-49.918 0-68.959-19.042-19.042-49.918-19.042-68.959 0l-194.404 194.404c-19.042 19.042-19.042 49.918 0 68.959z" glyph-name="search" unicode=""/><glyph d="M730.771 721.727c26.131-13.495 46.819-35.575 58.589-62.529 5.088-11.66 16.602-19.196 29.325-19.196l64.061-0.001-73.373-73.373c-6-6-9.373-14.141-9.373-22.627 0-209.414-148.611-416-416-416-49.386 0-87.827 10.4-115.504 22.093 6.722 2.643 13.678 5.562 20.746 8.774 45.482 20.675 104.624 57.533 125.117 119.014 5.43 16.288-2.976 33.955-19.018 40.042l-0.221 0.086c-0.272 0.109-0.771 0.31-1.478 0.611-1.418 0.602-3.674 1.597-6.627 3.021-5.914 2.848-14.589 7.395-24.95 13.926-20.762 13.091-47.973 33.946-73.362 64.774-43.103 52.339-83.032 135.872-73.575 265.188 12.724-11.905 27.826-25.118 45.103-38.692 58.401-45.888 143.319-97.206 246.509-114.403 9.28-1.546 18.768 1.069 25.946 7.149s11.315 15.008 11.315 24.416v63.987c0 0.003 0 0 0 0 0.003 29.411 10.131 57.922 28.682 80.743 18.554 22.821 44.397 38.56 73.187 44.569s58.771 1.923 84.902-11.572zM192 160c-22.628-22.627-22.616-22.64-22.604-22.65l0.078-0.077 0.125-0.125 0.324-0.317c0.249-0.24 0.563-0.541 0.942-0.896 0.759-0.71 1.78-1.645 3.064-2.768 2.567-2.246 6.191-5.258 10.872-8.768 9.359-7.021 22.985-16.070 40.889-25.021 35.913-17.958 88.782-35.379 158.311-35.379 302.819 0 473.517 232.438 479.818 466.563l118.81 118.809c9.152 9.152 11.891 22.916 6.938 34.873s-16.621 19.754-29.565 19.754l-121.68 0.002c-18.31 31.704-45.389 57.655-78.182 74.591-39.197 20.241-84.163 26.37-127.347 17.357-43.181-9.013-81.942-32.619-109.77-66.849-27.824-34.229-43.018-76.996-43.021-121.109v-24.33c-72.598 19.44-134.301 57.414-180.23 93.501-26.652 20.941-47.58 40.924-61.775 55.591-7.088 7.324-12.468 13.294-16.017 17.357-1.773 2.031-3.087 3.583-3.924 4.587l-0.897 1.085-0.177 0.217c0.003-0.004-0.008 0.010 0 0 0.005-0.006 0.007-0.009-24.981-19.999l24.981 19.999c0.003-0.004-0.008 0.010 0 0-7.836 9.772-20.672 14.095-32.819 11.027-12.159-3.072-21.403-12.963-23.646-25.301-33.654-185.1 16.691-306.671 78.782-382.067 30.61-37.171 63.399-62.317 88.635-78.227 4.496-2.835 8.765-5.382 12.746-7.658zM185.724 191.379c0.010 0-0.010-0.003 0 0-11.559-2.323-20.934-10.819-24.351-22.106-3.42-11.296-0.346-23.555 7.999-31.901l22.628 22.627z" glyph-name="twitter" unicode=""/><glyph d="M859.862 844.123c10.842 4.259 22.637 5.478 34.118 3.528 11.485-1.951 22.218-6.998 31.043-14.597s15.411-17.463 19.043-28.529c3.635-11.066 4.182-22.913 1.581-34.266v0l-150.454-656.531c-2.477-10.806-7.718-20.784-15.213-28.957-7.491-8.17-16.979-14.256-27.53-17.658-10.554-3.402-21.808-4.006-32.662-1.75s-20.938 7.293-29.261 14.614l-353.222 310.838-204.82 40.963c-13.556 2.71-25.871 9.741-35.1 20.032-9.229 10.294-14.877 23.299-16.098 37.072-1.221 13.77 2.049 27.565 9.322 39.325 7.273 11.757 18.158 20.842 31.026 25.898v0l738.228 290.017zM883.264 784.555l-738.227-290.017 213.238-42.65c5.517-1.101 10.643-3.638 14.864-7.354l359.67-316.509 150.454 656.529zM922.39 832.46c10.349-14.327 7.12-34.33-7.206-44.677l-544.448-393.212c-14.326-10.349-34.33-7.123-44.678 7.206-10.347 14.326-7.121 34.33 7.206 44.675l544.448 393.214c14.33 10.347 34.333 7.121 44.678-7.206zM352 452.509c17.674 0 32-14.326 32-32v-260.445l125.002 125.002c12.496 12.496 32.758 12.496 45.254 0s12.496-32.758 0-45.254l-125.002-125.002c-8.95-8.95-20.355-15.046-32.768-17.517-12.416-2.467-25.283-1.2-36.979 3.642-11.693 4.845-21.69 13.050-28.72 23.574-7.034 10.525-10.787 22.896-10.787 35.555v260.445c0 17.674 14.326 32 32 32z" glyph-name="telegram" unicode=""/><glyph d="M331.091 829.6c42.653 1.964 56.253 2.4 164.909 2.4s122.256-0.473 164.874-2.4c42.618-1.927 71.709-8.727 97.162-18.582 26.656-10.073 50.838-25.818 70.838-46.182 20.362-19.964 36.070-44.109 46.109-70.8 9.891-25.455 16.653-54.545 18.618-97.092 1.965-42.726 2.4-56.326 2.4-164.944 0-108.656-0.474-122.256-2.4-164.909-1.926-42.547-8.726-71.635-18.618-97.091-10.038-26.694-25.773-50.88-46.109-70.874-20-20.362-44.182-36.070-70.838-46.109-25.453-9.891-54.544-16.653-97.091-18.618-42.688-1.965-56.288-2.4-164.944-2.4s-122.256 0.474-164.909 2.4c-42.546 1.926-71.637 8.726-97.091 18.618-26.694 10.038-50.879 25.773-70.873 46.109-20.35 19.978-36.098 44.15-46.146 70.838-9.854 25.453-16.618 54.544-18.582 97.091-1.964 42.726-2.4 56.326-2.4 164.944 0 108.656 0.473 122.256 2.4 164.874s8.727 71.708 18.582 97.163c10.063 26.688 25.822 50.861 46.182 70.836 19.965 20.346 44.126 36.093 70.8 46.146 25.455 9.854 54.546 16.618 97.092 18.582h0.035zM657.635 757.6c-42.179 1.927-54.835 2.327-161.635 2.327s-119.456-0.4-161.635-2.327c-39.019-1.782-60.183-8.291-74.292-13.782-18.654-7.273-32-15.891-46-29.891-13.271-12.911-23.484-28.628-29.891-46-5.491-14.109-12-35.271-13.782-74.292-1.927-42.179-2.327-54.835-2.327-161.635s0.4-119.456 2.327-161.635c1.782-39.021 8.291-60.182 13.782-74.291 6.4-17.347 16.618-33.091 29.891-46 12.909-13.274 28.655-23.491 46-29.891 14.109-5.491 35.273-12 74.292-13.782 42.179-1.926 54.8-2.326 161.635-2.326s119.456 0.4 161.635 2.326c39.021 1.782 60.182 8.291 74.291 13.782 18.656 7.274 32 15.891 46 29.891 13.274 12.909 23.491 28.653 29.891 46 5.491 14.109 12 35.27 13.782 74.291 1.926 42.179 2.326 54.835 2.326 161.635s-0.4 119.456-2.326 161.635c-1.782 39.021-8.291 60.183-13.782 74.292-7.274 18.654-15.891 32-29.891 46-12.912 13.27-28.627 23.483-46 29.891-14.109 5.491-35.27 12-74.291 13.782zM444.909 308.691c28.534-11.878 60.304-13.482 89.888-4.534 29.584 8.944 55.146 27.882 72.317 53.581 17.171 25.696 24.89 56.557 21.834 87.312s-16.691 59.498-38.582 81.315c-13.955 13.946-30.829 24.624-49.408 31.267-18.576 6.64-38.397 9.082-58.029 7.146-19.635-1.936-38.595-8.202-55.517-18.346s-31.386-23.914-42.346-40.317c-10.96-16.403-18.15-35.034-21.046-54.55-2.899-19.514-1.43-39.43 4.291-58.31 5.725-18.88 15.562-36.259 28.806-50.88 13.245-14.624 29.568-26.128 47.792-33.683zM350.618 577.382c19.091 19.091 41.757 34.237 66.701 44.57 24.947 10.33 51.683 15.648 78.682 15.648s53.734-5.318 78.682-15.648c24.944-10.333 47.61-25.478 66.701-44.57s34.237-41.757 44.57-66.701c10.33-24.947 15.648-51.683 15.648-78.682s-5.318-53.734-15.648-78.682c-10.333-24.944-25.478-47.61-44.57-66.701-38.557-38.557-90.854-60.218-145.382-60.218s-106.826 21.661-145.382 60.218c-38.557 38.557-60.219 90.854-60.219 145.382s21.661 106.826 60.219 145.382zM747.2 606.982c4.73 4.461 8.518 9.83 11.139 15.782 2.618 5.952 4.016 12.371 4.112 18.874s-1.117 12.959-3.562 18.986c-2.445 6.027-6.074 11.502-10.672 16.101s-10.074 8.228-16.102 10.674c-6.026 2.445-12.483 3.656-18.986 3.561s-12.922-1.493-18.874-4.113c-5.952-2.62-11.322-6.407-15.782-11.138-8.682-9.201-13.434-21.423-13.248-34.070s5.29-24.727 14.234-33.671c8.944-8.944 21.024-14.048 33.67-14.234s24.87 4.566 34.070 13.248z" glyph-name="instagram" unicode=""/><glyph d="M148.944 611.069c75.606 75.614 194.093 151.909 363.056 151.909 168.965 0 287.448-76.295 363.057-151.909 37.726-37.73 64.932-75.412 82.75-103.707 8.92-14.169 15.522-26.045 19.941-34.483 2.21-4.22 3.875-7.586 5.018-9.955 0.571-1.185 1.008-2.12 1.32-2.79l0.366-0.802 0.108-0.247 0.038-0.085 0.016-0.032c0.005-0.013 0.011-0.026-24.614-10.969 24.625-10.945 24.619-10.958 24.614-10.971l-0.016-0.032-0.038-0.085-0.108-0.247-0.372-0.802c-0.307-0.669-0.744-1.604-1.315-2.789-1.143-2.369-2.808-5.734-5.018-9.953-4.419-8.434-11.027-20.312-19.946-34.476-17.812-28.289-45.024-65.967-82.75-103.688-75.604-75.598-194.091-151.875-363.051-151.875s-287.447 76.277-363.054 151.875c-37.725 37.721-64.935 75.399-82.749 103.688-8.92 14.164-15.523 26.042-19.942 34.476-2.211 4.219-3.878 7.585-5.018 9.953-0.57 1.184-1.009 2.12-1.318 2.789l-0.367 0.802-0.111 0.247-0.038 0.085-0.014 0.032c-0.006 0.013-0.011 0.025 24.613 10.971-24.625 10.943-24.62 10.956-24.614 10.969l0.014 0.032 0.038 0.085 0.111 0.247 0.367 0.802c0.309 0.669 0.748 1.605 1.318 2.79 1.14 2.369 2.808 5.734 5.018 9.955 4.419 8.438 11.022 20.314 19.942 34.483 17.814 28.295 45.024 65.978 82.748 103.707zM64 448l-24.625 10.943c-3.096-6.968-3.096-14.921 0.001-21.889l24.624 10.945zM94.064 448.001c3.832-7.308 9.708-17.882 17.739-30.635 16.186-25.708 40.976-60.023 75.251-94.294 68.393-68.387 173.908-136.095 324.946-136.095 151.040 0 256.555 67.708 324.948 136.095 34.272 34.272 59.063 68.586 75.248 94.294 8.036 12.753 13.91 23.327 17.742 30.635-3.832 7.31-9.706 17.887-17.742 30.647-16.185 25.71-40.976 60.035-75.253 94.314-68.392 68.402-173.908 136.122-324.942 136.122-151.037 0-256.55-67.72-324.944-136.122-34.275-34.279-59.065-68.604-75.251-94.314-8.033-12.76-13.909-23.337-17.741-30.647zM960 448l24.625-10.945c3.099 6.968 3.099 14.921 0 21.889l-24.625-10.943zM512 581.050c-73.483 0-133.053-59.569-133.053-133.053s59.57-133.053 133.053-133.053c73.485 0 133.055 59.57 133.055 133.053s-59.57 133.053-133.055 133.053zM325.053 447.997c0 103.248 83.699 186.947 186.947 186.947 103.246 0 186.95-83.699 186.95-186.947s-83.704-186.947-186.95-186.947c-103.248 0-186.947 83.699-186.947 186.947z" glyph-name="eye" unicode=""/><glyph d="M485.053 784.842c-186.033 0-336.842-150.809-336.842-336.842s150.809-336.842 336.842-336.842c186.034 0 336.842 150.808 336.842 336.842s-150.808 336.842-336.842 336.842zM94.316 448c0 215.798 174.939 390.737 390.737 390.737 215.8 0 390.737-174.939 390.737-390.737 0-215.8-174.937-390.737-390.737-390.737-215.798 0-390.737 174.937-390.737 390.737zM485.053 687.158c14.882 0 26.947-12.065 26.947-26.947v-185.263h185.263c14.88 0 26.947-12.065 26.947-26.947s-12.067-26.947-26.947-26.947h-212.211c-14.882 0-26.947 12.065-26.947 26.947v212.211c0 14.882 12.065 26.947 26.947 26.947z" glyph-name="clock" horiz-adv-x="970" unicode=""/><glyph d="M128 768c0 35.346 28.654 64 64 64h640c35.347 0 64-28.654 64-64v-640c0-35.347-28.653-64-64-64h-640c-35.346 0-64 28.653-64 64v640zM832 768h-640v-640h640v640zM480 543.997c17.674 0 32-14.326 32-32v-256c0-17.674-14.326-32-32-32s-32 14.326-32 32v256c0 17.674 14.326 32 32 32zM352 543.997c17.674 0 32-14.326 32-32v-256c0-17.674-14.326-32-32-32s-32 14.326-32 32v256c0 17.674 14.326 32 32 32zM592 479.997c-21.216 0-41.565-8.429-56.57-23.434-15.002-15.002-23.43-35.35-23.43-56.566 0-17.674-14.326-32-32-32s-32 14.326-32 32c0 38.192 15.171 74.816 42.176 101.824 27.005 27.005 63.632 42.176 101.824 42.176s74.819-15.171 101.824-42.176c27.005-27.008 42.176-63.632 42.176-101.824v-144c0-17.674-14.326-32-32-32s-32 14.326-32 32v144c0 21.216-8.429 41.565-23.43 56.566-15.005 15.005-35.354 23.434-56.57 23.434zM352 592c26.509 0 48 21.491 48 48s-21.491 48-48 48c-26.509 0-48-21.49-48-48s21.491-48 48-48z" glyph-name="linkedin" unicode=""/><glyph d="M512 64c212.076 0 384 171.924 384 384 0 212.078-171.924 384-384 384-212.078 0-384-171.922-384-384 0-212.076 171.922-384 384-384z" unicode=""/><glyph d="M512 780.8c-183.8 0-332.8-149-332.8-332.8 0-183.803 149-332.8 332.8-332.8 183.803 0 332.8 148.997 332.8 332.8 0 183.8-148.997 332.8-332.8 332.8zM76.8 448c0 240.354 194.846 435.2 435.2 435.2s435.2-194.846 435.2-435.2c0-240.353-194.847-435.2-435.2-435.2s-435.2 194.847-435.2 435.2z" unicode=""/><glyph d="M544.445 551.876c-21.796 6.805-45.178 6.58-66.839-0.643s-40.5-21.078-53.85-39.602c-13.35-18.524-20.533-40.779-20.533-63.612s7.184-45.090 20.534-63.614c13.35-18.519 32.19-32.374 53.851-39.598s45.047-7.45 66.843-0.645c21.796 6.81 40.899 20.296 54.6 38.559 16.973 22.62 49.065 27.197 71.68 10.23 22.62-16.973 27.197-49.065 10.23-71.685-26.604-35.451-63.683-61.64-105.994-74.849-42.307-13.21-87.701-12.769-129.749 1.249s-78.619 40.914-104.533 76.872c-25.915 35.958-39.86 79.16-39.86 123.482s13.944 87.524 39.859 123.482 62.485 62.853 104.532 76.874c42.047 14.021 87.439 14.458 129.751 1.248 42.307-13.209 79.391-39.394 105.989-74.848 16.973-22.618 12.396-54.711-10.225-71.682-22.615-16.971-54.707-12.393-71.68 10.225-13.706 18.264-32.809 31.753-54.605 38.558z" unicode=""/><glyph d="M79.238 736c0 26.93 21.832 48.762 48.762 48.762h768c26.931 0 48.762-21.832 48.762-48.762v-544c0-21.421-8.509-41.96-23.654-57.105-15.145-15.15-35.689-23.654-57.105-23.654h-704.002c-21.419 0-41.962 8.504-57.108 23.654-15.145 15.145-23.654 35.684-23.654 57.105v544zM176.762 687.238v-478.474h670.476v478.474h-670.476zM92.055 768.949c18.198 19.852 49.043 21.193 68.895 2.995l351.051-321.794 351.052 321.794c19.851 18.197 50.698 16.857 68.896-2.995 18.193-19.852 16.852-50.697-2.999-68.895l-384-352.002c-18.642-17.086-47.255-17.086-65.898 0l-384 352.002c-19.852 18.197-21.193 49.043-2.995 68.895z" glyph-name="mail" unicode=""/><glyph d="M768 64l-256.029 159.998-255.971-159.998v704c0 8.487 3.371 16.626 9.372 22.628s14.141 9.372 22.628 9.372h448.002c8.487 0 16.626-3.371 22.626-9.372s9.372-14.141 9.372-22.628v-704z" glyph-name="bookmark" unicode=""/><glyph d="M402.937 837.695c6.839 2.041 14.182 2.054 21.116-0.057l0.011-0.003c15.554-4.736 26.112-19.171 25.918-35.429-0.044-3.546-0.596-6.993-1.598-10.261-15.47-56.305-15.799-115.703-0.944-172.185 14.936-56.787 44.683-108.59 86.206-150.114 41.52-41.52 93.323-71.27 150.111-86.203 56.452-14.848 115.814-14.526 172.091 0.918 3.419 1.057 7.040 1.624 10.759 1.627 16.41 0.018 30.822-10.898 35.251-26.697l0.004-0.015c1.887-6.733 1.792-13.809-0.19-20.403-19.006-67.822-55.387-129.51-105.552-178.966-50.348-49.635-112.823-85.208-181.2-103.183s-140.27-17.719-208.519 0.742c-68.246 18.461-130.465 54.484-180.458 104.474-49.993 49.993-86.014 112.212-104.475 180.458-18.461 68.25-18.719 140.142-0.746 208.519s53.548 130.852 103.182 181.201c49.47 50.183 111.186 86.573 179.034 105.574zM365.504 745.387c-33.11-16.32-63.394-38.121-89.513-64.615-40.662-41.247-69.806-92.428-84.53-148.445s-14.513-114.915 0.611-170.825c15.124-55.91 44.634-106.884 85.59-147.836 40.956-40.956 91.929-70.466 147.839-85.592 55.91-15.122 114.805-15.331 170.825-0.607 56.016 14.724 107.198 43.867 148.443 84.531 26.492 26.116 48.293 56.4 64.614 89.509-48.176-4.941-97.039-1.214-144.23 11.198-69.317 18.231-132.546 54.543-183.23 105.223-50.681 50.681-86.992 113.913-105.223 183.228-12.411 47.194-16.138 96.055-11.197 144.231z" glyph-name="moon" unicode=""/><glyph d="M361.373 790.627c12.497 12.497 32.758 12.497 45.254 0l320.003-320c12.493-12.497 12.493-32.758 0-45.254l-320.003-320.003c-12.497-12.493-32.758-12.493-45.254 0-12.497 12.499-12.497 32.762 0 45.261l297.373 297.37-297.373 297.373c-12.497 12.497-12.497 32.758 0 45.254z" glyph-name="chevron-right" unicode=""/><glyph d="M529.646 197.071l201.74-127.816c25.788-16.339 57.807 7.959 50.151 38.064l-58.286 229.286c-1.642 6.39-1.446 13.107 0.561 19.39 2.007 6.279 5.747 11.866 10.789 16.114l180.908 150.573c23.773 19.788 11.502 59.237-19.038 61.219l-236.253 15.333c-6.365 0.455-12.468 2.707-17.601 6.497s-9.085 8.958-11.391 14.906l-88.113 221.892c-2.396 6.313-6.656 11.747-12.214 15.582-5.554 3.835-12.149 5.889-18.899 5.889s-13.345-2.054-18.899-5.889c-5.558-3.835-9.818-9.27-12.214-15.582l-88.112-221.892c-2.309-5.947-6.259-11.117-11.392-14.906s-11.236-6.042-17.6-6.497l-236.256-15.333c-30.54-1.982-42.809-41.431-19.039-61.219l180.909-150.573c5.041-4.248 8.781-9.834 10.789-16.114 2.008-6.283 2.202-13.001 0.561-19.39l-54.055-212.64c-9.183-36.123 29.238-65.282 60.183-45.674l187.477 118.78c5.276 3.355 11.395 5.136 17.646 5.136s12.37-1.782 17.646-5.136v0z" glyph-name="star" unicode=""/><glyph d="M512 792.615c-190.326 0-344.615-154.29-344.615-344.615s154.29-344.615 344.615-344.615c190.326 0 344.615 154.289 344.615 344.615s-154.289 344.615-344.615 344.615zM88.615 448c0 233.829 189.556 423.385 423.385 423.385 233.83 0 423.385-189.556 423.385-423.385 0-233.83-189.554-423.385-423.385-423.385-233.829 0-423.385 189.554-423.385 423.385zM508.388 611.613c15.38 15.38 40.318 15.38 55.698 0l135.763-135.764c15.38-15.38 15.38-40.318 0-55.698l-135.763-135.763c-15.38-15.384-40.318-15.384-55.698 0-15.384 15.38-15.384 40.314 0 55.698l107.914 107.914-107.914 107.914c-15.384 15.382-15.384 40.318 0 55.699zM312.615 448c0 21.752 17.633 39.385 39.385 39.385h320c21.752 0 39.385-17.632 39.385-39.385s-17.632-39.385-39.385-39.385h-320c-21.751 0-39.385 17.632-39.385 39.385z" glyph-name="arrow-circle-right" unicode=""/><glyph d="M158.21 609.79c18.662 18.662 48.919 18.662 67.581 0l286.209-286.209 286.208 286.209c18.664 18.662 48.92 18.662 67.584 0 18.657-18.662 18.657-48.919 0-67.581l-320.001-320.001c-18.662-18.657-48.919-18.657-67.581 0l-320 320.001c-18.662 18.662-18.662 48.919 0 67.581z" glyph-name="chevron-down" unicode=""/><glyph d="M512 651.429c-112.351 0-203.429-91.077-203.429-203.429s91.077-203.429 203.429-203.429c112.351 0 203.429 91.077 203.429 203.429s-91.077 203.429-203.429 203.429zM235.429 448c0 152.746 123.825 276.571 276.571 276.571 152.748 0 276.571-123.825 276.571-276.571 0-152.748-123.824-276.571-276.571-276.571-152.746 0-276.571 123.824-276.571 276.571zM512 932.571c20.198 0 36.571-16.374 36.571-36.571v-80c0-20.198-16.373-36.571-36.571-36.571s-36.571 16.374-36.571 36.571v80c0 20.198 16.373 36.571 36.571 36.571zM169.356 790.644c14.282 14.282 37.438 14.282 51.72 0l56.569-56.569c14.282-14.282 14.282-37.438 0-51.72s-37.438-14.282-51.72 0l-56.569 56.569c-14.282 14.282-14.282 37.438 0 51.72zM27.429 448c0 20.198 16.374 36.571 36.571 36.571h80c20.198 0 36.571-16.373 36.571-36.571s-16.374-36.571-36.571-36.571h-80c-20.198 0-36.571 16.373-36.571 36.571zM277.644 213.643c14.282-14.281 14.282-37.435 0-51.719l-56.569-56.569c-14.282-14.281-37.438-14.281-51.72 0-14.282 14.285-14.282 37.438 0 51.719l56.569 56.569c14.282 14.285 37.438 14.285 51.72 0zM512 116.571c20.198 0 36.571-16.373 36.571-36.571v-80c0-20.198-16.373-36.571-36.571-36.571s-36.571 16.373-36.571 36.571v80c0 20.198 16.373 36.571 36.571 36.571zM746.357 213.643c14.281 14.285 37.435 14.285 51.719 0l56.569-56.569c14.281-14.281 14.281-37.435 0-51.719-14.285-14.281-37.438-14.281-51.719 0l-56.569 56.569c-14.285 14.285-14.285 37.438 0 51.719zM843.429 448c0 20.198 16.373 36.571 36.571 36.571h80c20.198 0 36.571-16.373 36.571-36.571s-16.373-36.571-36.571-36.571h-80c-20.198 0-36.571 16.373-36.571 36.571zM854.645 790.644c14.281-14.282 14.281-37.438 0-51.72l-56.569-56.569c-14.285-14.282-37.438-14.282-51.719 0-14.285 14.282-14.285 37.438 0 51.72l56.569 56.569c14.281 14.282 37.435 14.282 51.719 0z" glyph-name="sun" unicode=""/><glyph d="M818.104 754.102c9.994-9.997 9.994-26.206 0-36.204l-576.003-576.003c-9.997-9.994-26.206-9.994-36.204 0-9.998 9.999-9.998 26.209 0 36.209l575.997 575.997c9.999 9.998 26.209 9.998 36.209 0zM205.898 754.102c9.997 9.998 26.206 9.998 36.204 0l576.003-575.997c9.994-9.999 9.994-26.209 0-36.209-9.999-9.994-26.209-9.994-36.209 0l-575.997 576.003c-9.998 9.997-9.998 26.206 0 36.204z" glyph-name="close" unicode=""/><glyph d="M96 736c0 17.673 14.327 32 32 32h768c17.674 0 32-14.327 32-32v-544c0-16.973-6.742-33.251-18.746-45.254s-28.282-18.746-45.254-18.746h-704c-16.974 0-33.252 6.742-45.255 18.746s-18.745 28.282-18.745 45.254v544zM160 704v-512h704v512h-704zM104.411 757.623c11.942 13.028 32.184 13.908 45.212 1.966l362.377-332.178 362.378 332.178c13.027 11.942 33.27 11.062 45.213-1.966 11.939-13.028 11.059-33.27-1.968-45.212l-384-352.001c-12.234-11.213-31.011-11.213-43.245 0l-384.001 352.001c-13.028 11.942-13.908 32.184-1.966 45.212z" glyph-name="light-envelope" unicode=""/><glyph d="M704 127.997c38.928 0.003 76.522 14.192 105.741 39.917 29.146 25.661 47.946 61.046 52.938 99.549l-187.35 80.291-100.083-66.739c-9.152-6.154-19.744-9.824-30.742-10.656-11.030-0.835-22.090 1.219-32.086 5.955l-0.227 0.109c-74.461 36.003-134.688 95.955-171.030 170.253l-0.106 0.221c-4.768 9.939-6.874 20.941-6.115 31.936 0.755 10.96 4.333 21.539 10.381 30.707l66.509 101.622-80.368 187.531zM331.459 798.693c-38.504-4.992-73.882-23.812-99.542-52.957-25.724-29.219-39.916-66.812-39.917-105.742 0-135.789 53.943-266.016 149.962-362.035s226.25-149.962 362.038-149.962zM323.846 862.24c13.754 1.664 27.674-1.186 39.664-8.121 11.974-6.925 21.379-17.548 26.797-30.274l0.026-0.055 80.32-187.416c4.157-9.702 5.853-20.278 4.931-30.794-0.918-10.512-4.426-20.637-10.205-29.466l-66.547-101.68c30.003-61.133 79.574-110.49 140.842-140.214l100.15 66.781c8.858 5.907 19.050 9.51 29.651 10.483 10.602 0.976 21.28-0.71 31.066-4.906l187.299-80.272c12.73-5.418 23.357-14.822 30.282-26.8 6.938-11.99 9.786-25.91 8.122-39.664l-0.026-0.211c-6.909-54.058-33.283-103.744-74.189-139.754-40.902-36.013-93.53-55.878-148.026-55.882-152.765 0-299.277 60.685-407.297 168.707-108.021 108.019-168.707 254.528-168.707 407.293 0.003 54.496 19.87 107.125 55.881 148.029s85.697 67.279 139.754 74.188l0.211 0.027z" glyph-name="phone" unicode=""/><glyph d="M512 851.2c28.277 0 51.2-22.923 51.2-51.2v-704c0-28.277-22.923-51.2-51.2-51.2s-51.2 22.923-51.2 51.2v704c0 28.277 22.923 51.2 51.2 51.2zM162.868 649.592c14.138 24.488 45.451 32.879 69.94 18.74l609.682-352c24.488-14.138 32.879-45.452 18.74-69.94-14.138-24.489-45.452-32.88-69.94-18.741l-609.682 352c-24.489 14.139-32.879 45.452-18.74 69.941zM861.231 649.592c14.138-24.489 5.748-55.802-18.74-69.941l-609.682-352c-24.489-14.138-55.802-5.748-69.94 18.741-14.138 24.488-5.749 55.802 18.74 69.94l609.682 352c24.488 14.138 55.802 5.748 69.94-18.74z" glyph-name="required" unicode=""/><glyph d="M914.286 474.968c0 49.243-39.592 89.209-88.375 89.209-24.038 0-45.25-9.278-60.804-24.978-60.094 43.531-143.521 72.078-235.432 75.646l40.298 130.122 130.798 2.379c1.415-33.541 28.987-60.66 62.925-60.66 34.64 0 62.921 28.546 62.921 63.515s-28.281 63.515-62.921 63.515c-24.748 0-45.956-14.273-55.856-35.682l-146.348 1.189c-4.242 0.714-8.485 0-12.021-2.141s-5.658-5.709-7.069-9.991l-44.54-152.245c-94.032-2.855-178.167-30.689-238.969-75.646-15.554 14.987-37.471 24.978-60.803 24.978-48.783 0-88.376-39.965-88.376-89.209 0-36.396 21.21-67.083 52.318-81.357-1.414-8.561-2.121-17.84-2.121-27.118 0-137.022 157.662-247.636 352.794-247.636 195.134 0 352.797 110.614 352.797 247.636 0 9.278-0.709 17.843-2.121 26.405 28.987 14.274 50.904 45.674 50.904 82.070zM309.797 411.454c0 34.97 28.28 63.514 62.925 63.514 34.64 0 62.921-28.544 62.921-63.514s-28.281-63.514-62.921-63.514c-34.644 0-62.925 28.544-62.925 63.514zM661.179 243.745c-43.129-43.531-125.14-46.387-149.179-46.387s-106.759 3.569-149.178 46.387c-6.363 6.426-6.363 17.13 0 23.552s16.969 6.422 23.332 0c26.865-27.118 84.838-37.109 126.552-37.109s98.981 9.991 126.555 37.109c6.363 6.422 16.969 6.422 23.333 0 4.948-7.139 4.948-17.126-1.415-23.552zM649.867 347.941c-34.644 0-62.925 28.544-62.925 63.514s28.281 63.514 62.925 63.514c34.64 0 62.921-28.544 62.921-63.514s-28.281-63.514-62.921-63.514z" glyph-name="reddit" unicode=""/></font>
</defs>
</svg>
