<svg width="652" height="74" viewBox="0 0 652 74" fill="none" xmlns="http://www.w3.org/2000/svg">
<path d="M188.14 0.490021H273.12V15.23H239.49V73.64H221.76V15.22H188.13V0.490021H188.14Z" fill="white"/>
<path d="M280.71 0.110016H338.63C347.63 0.110016 354.46 3.08998 359.14 9.03998C362.93 13.84 364.82 19.92 364.82 27.28C364.82 36.02 362.26 42.85 357.15 47.77C353.49 51.32 348.73 53.72 342.89 54.96L362.72 73.5H339.38L322.25 55.29H297.01V73.64H280.72V0.110016H280.71ZM336.55 39.23C340.31 39.23 343.21 37.9 345.26 35.25C346.9 33.15 347.72 30.5 347.72 27.29C347.72 23.99 346.63 21.34 344.45 19.32C342.43 17.48 339.79 16.56 336.54 16.56H296.99V39.23H336.55Z" fill="white"/>
<path d="M396.17 57.27L388 73.51H369.31L409.83 0.119995H425.94L466.46 73.51H447.04L438.96 57.27H396.17ZM432.43 44.09L417.73 14.41L402.8 44.09H432.43Z" fill="white"/>
<path d="M523.75 0.110016C535.15 0.110016 544.14 4.18001 550.72 12.32C556.18 19.06 558.91 27.2 558.91 36.73C558.91 43.4 557.52 49.51 554.73 55.06C551.85 60.72 547.84 65.15 542.71 68.34C537.22 71.78 530.9 73.5 523.75 73.5H473.67V0.110016H523.75ZM519.61 58.99C527.36 58.99 533.41 56.75 537.77 52.27C541.6 48.29 543.51 43.11 543.51 36.73C543.51 29.63 541 24.04 535.99 19.95C531.63 16.4 526.02 14.63 519.16 14.63H489.07V58.99H519.61Z" fill="white"/>
<path d="M642.25 58.66H582.63V43.56H629.93V29.31H582.63V14.52H639.96H649.33V0H639.96H575.84H566.47V73.4H575.84H642.25H651.62V58.66H642.25Z" fill="white"/>
<path d="M106.98 21.52V52.08C106.98 56 110.16 59.18 114.08 59.18H166.02V73.5H113.86C102.34 73.5 93 64.16 93 52.64V21.33C93 9.81002 102.34 0.470001 113.86 0.470001H166.02V14.41H114.08C110.16 14.43 106.98 17.6 106.98 21.52Z" fill="white"/>
<path d="M21.08 14.43H86V0.490021H20.86C9.34005 0.490021 0 9.82004 0 21.35V52.66C0 64.18 9.34005 73.52 20.86 73.52H43.01H61.5L71.03 59.2L72.21 57.43V59.2V73.52H86V59.2V44.1V36.71V30.31H72.21H71.77H40.58V44.1H62.59L52.54 59.2H21.08C17.16 59.2 13.98 56.03 13.98 52.1V21.52C13.98 17.6 17.16 14.43 21.08 14.43Z" fill="white"/>
</svg>
