<svg width="22" height="22" viewBox="0 0 22 22" fill="none" xmlns="http://www.w3.org/2000/svg">
    <g clip-path="url(#clip0_272_6980)">
        <path d="M11 22C17.0751 22 22 17.0751 22 11C22 4.92487 17.0751 0 11 0C4.92487 0 0 4.92487 0 11C0 17.0751 4.92487 22 11 22Z" fill="#F0F0F0"/>
        <path d="M2.27387 4.30273C1.40981 5.42693 0.758277 6.72265 0.378906 8.13026H6.1014L2.27387 4.30273Z" fill="#0052B4"/>
        <path d="M21.6208 8.13071C21.2415 6.72314 20.5899 5.42741 19.7259 4.30322L15.8984 8.13071H21.6208Z" fill="#0052B4"/>
        <path d="M0.378906 13.8696C0.75832 15.2772 1.40986 16.5729 2.27387 17.6971L6.10127 13.8696H0.378906Z" fill="#0052B4"/>
        <path d="M17.6971 2.27391C16.5729 1.40986 15.2772 0.75832 13.8696 0.378906V6.10136L17.6971 2.27391Z" fill="#0052B4"/>
        <path d="M4.30273 19.7258C5.42693 20.5899 6.72265 21.2414 8.13022 21.6208V15.8984L4.30273 19.7258Z" fill="#0052B4"/>
        <path d="M8.13018 0.378906C6.72261 0.75832 5.42688 1.40986 4.30273 2.27387L8.13018 6.10131V0.378906Z" fill="#0052B4"/>
        <path d="M13.8696 21.6208C15.2772 21.2414 16.5729 20.5899 17.6971 19.7259L13.8696 15.8984V21.6208Z" fill="#0052B4"/>
        <path d="M15.8984 13.8696L19.7259 17.6971C20.5899 16.573 21.2415 15.2772 21.6208 13.8696H15.8984Z" fill="#0052B4"/>
        <path d="M21.9069 9.56523H12.4349H12.4348V0.0931133C11.9651 0.0319688 11.4863 0 11 0C10.5136 0 10.0349 0.0319688 9.56523 0.0931133V9.56514V9.56519H0.0931133C0.0319688 10.0349 0 10.5137 0 11C0 11.4864 0.0319688 11.9651 0.0931133 12.4348H9.56514H9.56519V21.9069C10.0349 21.968 10.5136 22 11 22C11.4863 22 11.9651 21.9681 12.4348 21.9069V12.4349V12.4348H21.9069C21.968 11.9651 22 11.4864 22 11C22 10.5137 21.968 10.0349 21.9069 9.56523Z" fill="#D80027"/>
        <path d="M13.8696 13.8697L18.7782 18.7782C19.004 18.5526 19.2193 18.3166 19.4248 18.0721L15.2224 13.8696H13.8696V13.8697Z" fill="#D80027"/>
        <path d="M8.1303 13.8696H8.13021L3.22168 18.7782C3.44735 19.0039 3.68329 19.2193 3.92787 19.4248L8.1303 15.2222V13.8696Z" fill="#D80027"/>
        <path d="M8.13037 8.13039V8.1303L3.22179 3.22168C2.99603 3.44735 2.78067 3.68329 2.5752 3.92787L6.77767 8.13034H8.13037V8.13039Z" fill="#D80027"/>
        <path d="M13.8696 8.13041L18.7782 3.22175C18.5526 2.99599 18.3166 2.78063 18.0721 2.5752L13.8696 6.77767V8.13041Z" fill="#D80027"/>
    </g>
    <defs>
        <clipPath id="clip0_272_6980">
            <rect width="22" height="22" fill="white"/>
        </clipPath>
    </defs>
</svg>
