<svg xmlns="http://www.w3.org/2000/svg" width="22" height="22" fill="none" viewBox="0 0 22 22"><g clip-path="url(#clip0_180_10932)"><path fill="#D80027" d="M0 0H22V22H0V0Z"/><path fill="#6DA544" d="M0 15.3271H21.3393V22.5944H0V15.3271Z"/><path fill="#338AF3" d="M0 0.000488281H33.033V6.74355H0V0.000488281Z"/><path fill="#fff" d="M0 7.7002H22V14.3002H0V7.7002Z"/><path fill="#338AF3" d="M0 0.000488281H33.033V6.74355H0V0.000488281Z"/><path fill="#fff" d="M5.16695 3.99003C5.16695 3.13325 5.76912 2.41739 6.57326 2.24184C6.44729 2.21424 6.3187 2.20028 6.18974 2.2002C5.2012 2.2002 4.3999 3.0015 4.3999 3.99003C4.3999 4.97857 5.2012 5.77987 6.18974 5.77987C6.32149 5.77987 6.44971 5.76524 6.57326 5.73822C5.76912 5.56267 5.16695 4.84681 5.16695 3.99003ZM7.63105 4.80356L7.75225 5.17647H8.14435L7.82713 5.40701L7.94832 5.77987L7.63105 5.54938L7.31383 5.77987L7.43503 5.40701L7.11781 5.17647H7.50991L7.63105 4.80356ZM8.88256 4.80356L9.0037 5.17647H9.3958L9.07858 5.40701L9.19978 5.77987L8.88256 5.54938L8.56534 5.77987L8.68648 5.40701L8.36932 5.17647H8.76137L8.88256 4.80356ZM10.134 4.80356L10.2552 5.17647H10.6473L10.3301 5.40701L10.4512 5.77987L10.134 5.54938L9.8168 5.77987L9.93794 5.40701L9.62072 5.17647H10.0128L10.134 4.80356ZM11.3855 4.80356L11.5067 5.17647H11.8988L11.5815 5.40701L11.7027 5.77987L11.3855 5.54938L11.0683 5.77987L11.1895 5.40701L10.8722 5.17647H11.2643L11.3855 4.80356ZM12.637 4.80356L12.7581 5.17647H13.1502L12.833 5.40701L12.9542 5.77987L12.637 5.54938L12.3198 5.77987L12.4409 5.40701L12.1237 5.17647H12.5158L12.637 4.80356ZM8.88256 3.50188L9.0037 3.87473H9.3958L9.07858 4.10522L9.19978 4.47814L8.88256 4.2477L8.56534 4.47814L8.68648 4.10522L8.36932 3.87473H8.76137L8.88256 3.50188ZM10.134 3.50188L10.2552 3.87473H10.6473L10.3301 4.10522L10.4512 4.47814L10.134 4.2477L9.8168 4.47814L9.93794 4.10522L9.62072 3.87473H10.0128L10.134 3.50188ZM11.3855 3.50188L11.5067 3.87473H11.8988L11.5815 4.10522L11.7027 4.47814L11.3855 4.2477L11.0683 4.47814L11.1895 4.10522L10.8722 3.87473H11.2643L11.3855 3.50188ZM12.637 3.50188L12.7581 3.87473H13.1502L12.833 4.10522L12.9542 4.47814L12.637 4.2477L12.3198 4.47814L12.4409 4.10522L12.1237 3.87473H12.5158L12.637 3.50188ZM10.134 2.2002L10.2552 2.57305H10.6473L10.3301 2.80354L10.4512 3.17646L10.134 2.94597L9.8168 3.17646L9.93794 2.80354L9.62072 2.57305H10.0128L10.134 2.2002ZM11.3855 2.2002L11.5067 2.57305H11.8988L11.5815 2.80354L11.7027 3.17646L11.3855 2.94597L11.0683 3.17646L11.1895 2.80354L10.8722 2.57305H11.2643L11.3855 2.2002ZM12.637 2.2002L12.7581 2.57305H13.1502L12.833 2.80354L12.9542 3.17646L12.637 2.94597L12.3198 3.17646L12.4409 2.80354L12.1237 2.57305H12.5158L12.637 2.2002Z"/></g><defs><clipPath id="clip0_180_10932"><rect width="22" height="22" fill="#fff" rx="11"/></clipPath></defs></svg>